{
    "asset" : {
        "generator" : "Khronos glTF Blender I/O v0.9.36",
        "version" : "2.0"
    },
    "scene" : 0,
    "scenes" : [
        {
            "name" : "Scene",
            "nodes" : [
                0,
                1,
                2,
                3,
                4,
                5,
                6,
                7,
                8,
                9,
                10
            ]
        }
    ],
    "nodes" : [
        {
            "mesh" : 0,
            "name" : "Cube",
            "scale" : [
                0.2188735008239746,
                2.430935859680176,
                0.2188735008239746
            ]
        },
        {
            "mesh" : 1,
            "name" : "Cube.001",
            "scale" : [
                1,
                2.187335968017578,
                -0.05475914105772972
            ],
            "translation" : [
                0,
                0.13945703208446503,
                0
            ]
        },
        {
            "mesh" : 2,
            "name" : "Cube.002",
            "scale" : [
                4.825130939483643,
                1.2952098846435547,
                2.5133297443389893
            ],
            "translation" : [
                0,
                5.167113304138184,
                0
            ]
        },
        {
            "mesh" : 3,
            "name" : "Cube.003",
            "scale" : [
                3.6999895572662354,
                1,
                1.5820114612579346
            ],
            "translation" : [
                0,
                3.280113458633423,
                0
            ]
        },
        {
            "mesh" : 4,
            "name" : "Cylinder",
            "scale" : [
                0.47079503536224365,
                2.394439458847046,
                0.47079503536224365
            ]
        },
        {
            "mesh" : 5,
            "name" : "Cube.004",
            "scale" : [
                3.11887264251709,
                2.3893985748291016,
                0.7734163403511047
            ]
        },
        {
            "mesh" : 6,
            "name" : "g2-1",
            "scale" : [
                -0.8463448882102966,
                4.71412992477417,
                -0.8463448882102966
            ],
            "translation" : [
                0,
                0,
                -41.987735748291016
            ]
        },
        {
            "mesh" : 7,
            "name" : "g2-3",
            "translation" : [
                -1.519744873046875,
                7.143750190734863,
                -38.872894287109375
            ]
        },
        {
            "mesh" : 8,
            "name" : "g3-1",
            "scale" : [
                -1.776576042175293,
                -1.776576042175293,
                -2.566948413848877
            ],
            "translation" : [
                30.68610191345215,
                10.201278686523438,
                -49.828556060791016
            ]
        },
        {
            "mesh" : 9,
            "name" : "g2-2",
            "rotation" : [
                0.004676001146435738,
                0.06338110566139221,
                0.27815213799476624,
                0.9584322571754456
            ],
            "scale" : [
                -0.8463448882102966,
                4.71412992477417,
                -0.8463448882102966
            ],
            "translation" : [
                -7.3265252113342285,
                -0.20808562636375427,
                -41.81715774536133
            ]
        },
        {
            "mesh" : 10,
            "name" : "g3-2",
            "scale" : [
                -1.776576042175293,
                -1.776576042175293,
                -2.566948413848877
            ],
            "translation" : [
                35.143096923828125,
                11.431059837341309,
                -44.660980224609375
            ]
        }
    ],
    "materials" : [
        {
            "doubleSided" : true,
            "name" : "Material",
            "pbrMetallicRoughness" : {
                "baseColorFactor" : [
                    0.800000011920929,
                    0.800000011920929,
                    0.800000011920929,
                    1
                ],
                "metallicFactor" : 0,
                "roughnessFactor" : 0.4000000059604645
            }
        },
        {
            "doubleSided" : true,
            "name" : "Material.003",
            "pbrMetallicRoughness" : {
                "baseColorFactor" : [
                    0.5596060156822205,
                    0.10272648185491562,
                    0.03946753963828087,
                    1
                ],
                "metallicFactor" : 0,
                "roughnessFactor" : 0.5
            }
        },
        {
            "doubleSided" : true,
            "name" : "Material.001",
            "pbrMetallicRoughness" : {
                "baseColorFactor" : [
                    0.008076301775872707,
                    0.008076301775872707,
                    0.008076301775872707,
                    1
                ],
                "metallicFactor" : 0,
                "roughnessFactor" : 0.5
            }
        },
        {
            "doubleSided" : true,
            "name" : "Material.002",
            "pbrMetallicRoughness" : {
                "baseColorFactor" : [
                    0.42002880573272705,
                    0.166642963886261,
                    0.018901221454143524,
                    1
                ],
                "metallicFactor" : 0,
                "roughnessFactor" : 0.5
            }
        }
    ],
    "meshes" : [
        {
            "name" : "Cube",
            "primitives" : [
                {
                    "attributes" : {
                        "POSITION" : 0,
                        "NORMAL" : 1,
                        "TEXCOORD_0" : 2
                    },
                    "indices" : 3,
                    "material" : 0
                }
            ]
        },
        {
            "name" : "Cube.001",
            "primitives" : [
                {
                    "attributes" : {
                        "POSITION" : 4,
                        "NORMAL" : 5,
                        "TEXCOORD_0" : 6
                    },
                    "indices" : 7,
                    "material" : 1
                }
            ]
        },
        {
            "name" : "Cube.002",
            "primitives" : [
                {
                    "attributes" : {
                        "POSITION" : 8,
                        "NORMAL" : 9,
                        "TEXCOORD_0" : 10
                    },
                    "indices" : 11,
                    "material" : 2
                }
            ]
        },
        {
            "name" : "Cube.003",
            "primitives" : [
                {
                    "attributes" : {
                        "POSITION" : 12,
                        "NORMAL" : 13,
                        "TEXCOORD_0" : 14
                    },
                    "indices" : 3,
                    "material" : 3
                }
            ]
        },
        {
            "name" : "Cylinder",
            "primitives" : [
                {
                    "attributes" : {
                        "POSITION" : 15,
                        "NORMAL" : 16,
                        "TEXCOORD_0" : 17
                    },
                    "indices" : 18,
                    "material" : 3
                }
            ]
        },
        {
            "name" : "Cube.004",
            "primitives" : [
                {
                    "attributes" : {
                        "POSITION" : 19,
                        "NORMAL" : 20,
                        "TEXCOORD_0" : 21
                    },
                    "indices" : 7
                }
            ]
        },
        {
            "name" : "Cylinder.001",
            "primitives" : [
                {
                    "attributes" : {
                        "POSITION" : 22,
                        "NORMAL" : 23,
                        "TEXCOORD_0" : 24
                    },
                    "indices" : 25
                }
            ]
        },
        {
            "name" : "Cube.005",
            "primitives" : [
                {
                    "attributes" : {
                        "POSITION" : 26,
                        "NORMAL" : 27,
                        "TEXCOORD_0" : 28
                    },
                    "indices" : 3
                }
            ]
        },
        {
            "name" : "Plane",
            "primitives" : [
                {
                    "attributes" : {
                        "POSITION" : 29,
                        "NORMAL" : 30,
                        "TEXCOORD_0" : 31
                    },
                    "indices" : 32
                }
            ]
        },
        {
            "name" : "Cylinder.002",
            "primitives" : [
                {
                    "attributes" : {
                        "POSITION" : 33,
                        "NORMAL" : 34,
                        "TEXCOORD_0" : 35
                    },
                    "indices" : 25
                }
            ]
        },
        {
            "name" : "Plane.001",
            "primitives" : [
                {
                    "attributes" : {
                        "POSITION" : 36,
                        "NORMAL" : 37,
                        "TEXCOORD_0" : 38
                    },
                    "indices" : 32
                }
            ]
        }
    ],
    "accessors" : [
        {
            "bufferView" : 0,
            "componentType" : 5126,
            "count" : 24,
            "max" : [
                -11.423874855041504,
                1,
                1
            ],
            "min" : [
                -13.423874855041504,
                -1,
                -1
            ],
            "type" : "VEC3"
        },
        {
            "bufferView" : 1,
            "componentType" : 5126,
            "count" : 24,
            "type" : "VEC3"
        },
        {
            "bufferView" : 2,
            "componentType" : 5126,
            "count" : 24,
            "type" : "VEC2"
        },
        {
            "bufferView" : 3,
            "componentType" : 5123,
            "count" : 36,
            "type" : "SCALAR"
        },
        {
            "bufferView" : 4,
            "componentType" : 5126,
            "count" : 48,
            "max" : [
                2.4628875255584717,
                1.0383710861206055,
                1.000000238418579
            ],
            "min" : [
                -2.4628875255584717,
                -1.0383710861206055,
                -1.000000238418579
            ],
            "type" : "VEC3"
        },
        {
            "bufferView" : 5,
            "componentType" : 5126,
            "count" : 48,
            "type" : "VEC3"
        },
        {
            "bufferView" : 6,
            "componentType" : 5126,
            "count" : 48,
            "type" : "VEC2"
        },
        {
            "bufferView" : 7,
            "componentType" : 5123,
            "count" : 72,
            "type" : "SCALAR"
        },
        {
            "bufferView" : 8,
            "componentType" : 5126,
            "count" : 152,
            "max" : [
                1.0639225244522095,
                0.5677638053894043,
                1.2078959941864014
            ],
            "min" : [
                -1.0639225244522095,
                -1.4594579935073853,
                -1.2078959941864014
            ],
            "type" : "VEC3"
        },
        {
            "bufferView" : 9,
            "componentType" : 5126,
            "count" : 152,
            "type" : "VEC3"
        },
        {
            "bufferView" : 10,
            "componentType" : 5126,
            "count" : 152,
            "type" : "VEC2"
        },
        {
            "bufferView" : 11,
            "componentType" : 5123,
            "count" : 228,
            "type" : "SCALAR"
        },
        {
            "bufferView" : 12,
            "componentType" : 5126,
            "count" : 24,
            "max" : [
                1,
                1,
                1
            ],
            "min" : [
                -1,
                -1,
                -1
            ],
            "type" : "VEC3"
        },
        {
            "bufferView" : 13,
            "componentType" : 5126,
            "count" : 24,
            "type" : "VEC3"
        },
        {
            "bufferView" : 14,
            "componentType" : 5126,
            "count" : 24,
            "type" : "VEC2"
        },
        {
            "bufferView" : 15,
            "componentType" : 5126,
            "count" : 768,
            "max" : [
                7.541032314300537,
                0.9999999403953552,
                3.111402988433838
            ],
            "min" : [
                -7.541032314300537,
                -0.9999999403953552,
                -3.111402988433838
            ],
            "type" : "VEC3"
        },
        {
            "bufferView" : 16,
            "componentType" : 5126,
            "count" : 768,
            "type" : "VEC3"
        },
        {
            "bufferView" : 17,
            "componentType" : 5126,
            "count" : 768,
            "type" : "VEC2"
        },
        {
            "bufferView" : 18,
            "componentType" : 5123,
            "count" : 1488,
            "type" : "SCALAR"
        },
        {
            "bufferView" : 19,
            "componentType" : 5126,
            "count" : 48,
            "max" : [
                6.622506141662598,
                0.6186624765396118,
                1
            ],
            "min" : [
                -6.622506141662598,
                -1,
                -1
            ],
            "type" : "VEC3"
        },
        {
            "bufferView" : 20,
            "componentType" : 5126,
            "count" : 48,
            "type" : "VEC3"
        },
        {
            "bufferView" : 21,
            "componentType" : 5126,
            "count" : 48,
            "type" : "VEC2"
        },
        {
            "bufferView" : 22,
            "componentType" : 5126,
            "count" : 192,
            "max" : [
                1,
                1,
                1
            ],
            "min" : [
                -1,
                -1,
                -1
            ],
            "type" : "VEC3"
        },
        {
            "bufferView" : 23,
            "componentType" : 5126,
            "count" : 192,
            "type" : "VEC3"
        },
        {
            "bufferView" : 24,
            "componentType" : 5126,
            "count" : 192,
            "type" : "VEC2"
        },
        {
            "bufferView" : 25,
            "componentType" : 5123,
            "count" : 372,
            "type" : "SCALAR"
        },
        {
            "bufferView" : 26,
            "componentType" : 5126,
            "count" : 24,
            "max" : [
                1,
                1,
                1
            ],
            "min" : [
                -1,
                -1,
                -1
            ],
            "type" : "VEC3"
        },
        {
            "bufferView" : 27,
            "componentType" : 5126,
            "count" : 24,
            "type" : "VEC3"
        },
        {
            "bufferView" : 28,
            "componentType" : 5126,
            "count" : 24,
            "type" : "VEC2"
        },
        {
            "bufferView" : 29,
            "componentType" : 5126,
            "count" : 4,
            "max" : [
                1,
                0,
                1
            ],
            "min" : [
                -1,
                0,
                -1
            ],
            "type" : "VEC3"
        },
        {
            "bufferView" : 30,
            "componentType" : 5126,
            "count" : 4,
            "type" : "VEC3"
        },
        {
            "bufferView" : 31,
            "componentType" : 5126,
            "count" : 4,
            "type" : "VEC2"
        },
        {
            "bufferView" : 32,
            "componentType" : 5123,
            "count" : 6,
            "type" : "SCALAR"
        },
        {
            "bufferView" : 33,
            "componentType" : 5126,
            "count" : 192,
            "max" : [
                1,
                1,
                1
            ],
            "min" : [
                -1,
                -1,
                -1
            ],
            "type" : "VEC3"
        },
        {
            "bufferView" : 34,
            "componentType" : 5126,
            "count" : 192,
            "type" : "VEC3"
        },
        {
            "bufferView" : 35,
            "componentType" : 5126,
            "count" : 192,
            "type" : "VEC2"
        },
        {
            "bufferView" : 36,
            "componentType" : 5126,
            "count" : 4,
            "max" : [
                1,
                0,
                1
            ],
            "min" : [
                -1,
                0,
                -1
            ],
            "type" : "VEC3"
        },
        {
            "bufferView" : 37,
            "componentType" : 5126,
            "count" : 4,
            "type" : "VEC3"
        },
        {
            "bufferView" : 38,
            "componentType" : 5126,
            "count" : 4,
            "type" : "VEC2"
        }
    ],
    "bufferViews" : [
        {
            "buffer" : 0,
            "byteLength" : 288,
            "byteOffset" : 0
        },
        {
            "buffer" : 0,
            "byteLength" : 288,
            "byteOffset" : 288
        },
        {
            "buffer" : 0,
            "byteLength" : 192,
            "byteOffset" : 576
        },
        {
            "buffer" : 0,
            "byteLength" : 72,
            "byteOffset" : 768
        },
        {
            "buffer" : 0,
            "byteLength" : 576,
            "byteOffset" : 840
        },
        {
            "buffer" : 0,
            "byteLength" : 576,
            "byteOffset" : 1416
        },
        {
            "buffer" : 0,
            "byteLength" : 384,
            "byteOffset" : 1992
        },
        {
            "buffer" : 0,
            "byteLength" : 144,
            "byteOffset" : 2376
        },
        {
            "buffer" : 0,
            "byteLength" : 1824,
            "byteOffset" : 2520
        },
        {
            "buffer" : 0,
            "byteLength" : 1824,
            "byteOffset" : 4344
        },
        {
            "buffer" : 0,
            "byteLength" : 1216,
            "byteOffset" : 6168
        },
        {
            "buffer" : 0,
            "byteLength" : 456,
            "byteOffset" : 7384
        },
        {
            "buffer" : 0,
            "byteLength" : 288,
            "byteOffset" : 7840
        },
        {
            "buffer" : 0,
            "byteLength" : 288,
            "byteOffset" : 8128
        },
        {
            "buffer" : 0,
            "byteLength" : 192,
            "byteOffset" : 8416
        },
        {
            "buffer" : 0,
            "byteLength" : 9216,
            "byteOffset" : 8608
        },
        {
            "buffer" : 0,
            "byteLength" : 9216,
            "byteOffset" : 17824
        },
        {
            "buffer" : 0,
            "byteLength" : 6144,
            "byteOffset" : 27040
        },
        {
            "buffer" : 0,
            "byteLength" : 2976,
            "byteOffset" : 33184
        },
        {
            "buffer" : 0,
            "byteLength" : 576,
            "byteOffset" : 36160
        },
        {
            "buffer" : 0,
            "byteLength" : 576,
            "byteOffset" : 36736
        },
        {
            "buffer" : 0,
            "byteLength" : 384,
            "byteOffset" : 37312
        },
        {
            "buffer" : 0,
            "byteLength" : 2304,
            "byteOffset" : 37696
        },
        {
            "buffer" : 0,
            "byteLength" : 2304,
            "byteOffset" : 40000
        },
        {
            "buffer" : 0,
            "byteLength" : 1536,
            "byteOffset" : 42304
        },
        {
            "buffer" : 0,
            "byteLength" : 744,
            "byteOffset" : 43840
        },
        {
            "buffer" : 0,
            "byteLength" : 288,
            "byteOffset" : 44584
        },
        {
            "buffer" : 0,
            "byteLength" : 288,
            "byteOffset" : 44872
        },
        {
            "buffer" : 0,
            "byteLength" : 192,
            "byteOffset" : 45160
        },
        {
            "buffer" : 0,
            "byteLength" : 48,
            "byteOffset" : 45352
        },
        {
            "buffer" : 0,
            "byteLength" : 48,
            "byteOffset" : 45400
        },
        {
            "buffer" : 0,
            "byteLength" : 32,
            "byteOffset" : 45448
        },
        {
            "buffer" : 0,
            "byteLength" : 12,
            "byteOffset" : 45480
        },
        {
            "buffer" : 0,
            "byteLength" : 2304,
            "byteOffset" : 45492
        },
        {
            "buffer" : 0,
            "byteLength" : 2304,
            "byteOffset" : 47796
        },
        {
            "buffer" : 0,
            "byteLength" : 1536,
            "byteOffset" : 50100
        },
        {
            "buffer" : 0,
            "byteLength" : 48,
            "byteOffset" : 51636
        },
        {
            "buffer" : 0,
            "byteLength" : 48,
            "byteOffset" : 51684
        },
        {
            "buffer" : 0,
            "byteLength" : 32,
            "byteOffset" : 51732
        }
    ],
    "buffers" : [
        {
            "byteLength" : 51764,
            "uri" : "data:application/octet-stream;base64,"
        }
    ]
}
